<?xml version="1.0" encoding="utf-8"?>
<!-- Generator: Adobe Illustrator 22.1.0, SVG Export Plug-In . SVG Version: 6.00 Build 0)  -->
<svg version="1.1" id="Слой_1" xmlns="http://www.w3.org/2000/svg" xmlns:xlink="http://www.w3.org/1999/xlink" x="0px" y="0px"
	 viewBox="0 0 264 216" style="enable-background:new 0 0 264 216;" xml:space="preserve">
<style type="text/css">
	.st0{fill:none;}
	.st1{fill:#BC8A7E;}
</style>
<rect x="0.1" class="st0" width="263.9" height="216"/>
<g>
	<g>
		<g>
			<path class="st1" d="M132.8,62c-0.3,0-0.3,0.1-0.3,0.4v24.8c0,0.3,0,0.5,0.4,0.5l1.4,0.1v0.4h-5.7v-0.4l1.4-0.1
				c0.4,0,0.4-0.3,0.4-0.6V62.4c0-0.3-0.1-0.3-0.5-0.4l-1.2-0.1v-0.4h5.6v0.4L132.8,62z"/>
		</g>
	</g>
	<path class="st1" d="M125.6,68.7c-0.3,0-0.3,0.1-0.3,0.4v11.5c0,0.3,0,0.5,0.4,0.5l1.4,0.1v0.4h-5.7v-0.4l1.4-0.1
		c0.4,0,0.4-0.3,0.4-0.6V69c0-0.3-0.1-0.3-0.5-0.4l-1.2-0.1v-0.4h5.6v0.4L125.6,68.7z"/>
	<path class="st1" d="M140.2,68.7c-0.3,0-0.3,0.1-0.3,0.4v11.5c0,0.3,0,0.5,0.4,0.5l1.4,0.1v0.4H136v-0.4l1.4-0.1
		c0.4,0,0.4-0.3,0.4-0.6V69c0-0.3-0.1-0.3-0.5-0.4l-1.2-0.1v-0.4h5.6v0.4L140.2,68.7z"/>
	<g>
		<g>
			<path class="st1" d="M53.9,119.5l0.3-3.7c0-0.4,0.3-0.6,0.7-0.6h8c0.4,0,0.6,0.2,0.7,0.6l0.3,3.7h-0.4c-0.6-3.7-2.4-3.8-3.2-3.8
				h-0.3v12.1c0,0.3,0.2,0.4,0.5,0.4l1.4,0.1v0.4h-5.9v-0.4l1.4-0.1c0.3,0,0.5-0.1,0.5-0.4v-12.1h-0.3c-0.8,0-2.6,0.1-3.2,3.8H53.9z
				"/>
			<path class="st1" d="M79.5,115.2c0.6,0,2,0,3,0.9c0.8,0.7,1,1.6,1,2.3c0,1.4-0.7,2.2-1.3,2.7c-0.7,0.5-1.6,0.7-2.3,0.7v0.2
				c1,0.1,1.6,0.6,1.9,0.9c0.4,0.5,0.7,1.1,1.4,2.5c0.4,0.9,0.8,1.6,1.2,2.2c0.2,0.4,0.5,0.7,1,0.7c0.1,0,0.2,0,0.2,0v0.4
				c-0.2,0-0.7,0.1-1,0.1c-1.3,0-1.9-0.5-2.3-1.1c-1.1-1.4-1.8-3.3-2.5-4.5c-0.4-0.6-0.8-1.2-1.6-1.2l-0.5,0v5.9
				c0,0.3,0.2,0.4,0.5,0.4l1.2,0.1v0.4h-5.5v-0.4l1.2-0.1c0.3,0,0.5-0.1,0.5-0.4v-11.7c0-0.3-0.2-0.4-0.5-0.4l-1.2-0.1v-0.4H79.5z
				 M77.5,121.4l0.6,0h0.1c0.8,0,2-0.3,2.5-0.7c0.7-0.6,0.7-1.4,0.7-1.9v-0.1v-0.3c0-0.6,0-1.3-0.6-1.9c-0.7-0.7-1.6-0.8-2.2-0.8
				c-0.4,0-0.7,0-1.1,0.2V121.4z"/>
			<path class="st1" d="M99.1,115.7c-0.3,0-0.3,0.1-0.3,0.4v11.5c0,0.3,0,0.5,0.4,0.5l1.4,0.1v0.4h-5.7v-0.4l1.4-0.1
				c0.4,0,0.4-0.3,0.4-0.6v-11.5c0-0.3-0.1-0.3-0.5-0.4l-1.2-0.1v-0.4h5.6v0.4L99.1,115.7z"/>
			<path class="st1" d="M115,115.7c-0.3,0-0.3,0.1-0.3,0.4v11.5c0,0.3,0,0.5,0.4,0.5l1.4,0.1v0.4h-5.7v-0.4l1.4-0.1
				c0.4,0,0.4-0.3,0.4-0.6v-11.5c0-0.3-0.1-0.3-0.5-0.4l-1.2-0.1v-0.4h5.6v0.4L115,115.7z"/>
			<path class="st1" d="M130.9,115.7c-0.3,0-0.3,0.1-0.3,0.4v11.5c0,0.3,0,0.5,0.4,0.5l1.4,0.1v0.4h-5.7v-0.4l1.4-0.1
				c0.4,0,0.4-0.3,0.4-0.6v-11.5c0-0.3-0.1-0.3-0.5-0.4l-1.2-0.1v-0.4h5.6v0.4L130.9,115.7z"/>
			<path class="st1" d="M145.3,117.1l0.1,9.8c0,0.3,0,1.4,1.2,1.4l0.6,0v0.4h-4.5v-0.4l0.6,0c1.2-0.1,1.2-1,1.2-1.4l0.1-10.2
				c-0.3-1-1.3-1.1-1.7-1.1h-0.2l-0.4,0v-0.4l0.3,0c1.3-0.1,1.6-0.1,1.8-0.1c1.9,0,2.6,1,3.2,1.9l5.2,8.7h0.3l-0.1-8.7
				c0-1.2-0.7-1.3-1.2-1.4l-0.6,0v-0.4h4.5v0.4l-0.6,0c-0.6,0-1.2,0.2-1.2,1.4l-0.2,12.1h-0.8l-7.5-12.1H145.3z"/>
			<path class="st1" d="M170.3,115.7c-0.3,0-0.3,0.1-0.3,0.4v11.5c0,0.3,0,0.5,0.4,0.5l1.4,0.1v0.4h-5.7v-0.4l1.4-0.1
				c0.4,0,0.4-0.3,0.4-0.6v-11.5c0-0.3-0.1-0.3-0.5-0.4l-1.2-0.1v-0.4h5.6v0.4L170.3,115.7z"/>
			<path class="st1" d="M181.4,119.5l0.3-3.7c0-0.4,0.3-0.6,0.7-0.6h8c0.4,0,0.6,0.2,0.7,0.6l0.3,3.7h-0.4c-0.6-3.7-2.4-3.8-3.2-3.8
				h-0.3v12.1c0,0.3,0.3,0.4,0.5,0.4l1.4,0.1v0.4h-5.9v-0.4l1.4-0.1c0.3,0,0.5-0.1,0.5-0.4v-12.1H185c-0.8,0-2.6,0.1-3.2,3.8H181.4z
				"/>
			<path class="st1" d="M205.4,115.2v0.4l-0.8,0c-0.3,0-0.6,0-0.6,0.3c0,0.1,0.1,0.2,0.1,0.3l2.3,5.2h0.1l2.2-4.5
				c0.1-0.2,0.2-0.5,0.2-0.7c0-0.5-0.3-0.7-0.9-0.7l-0.4,0v-0.4h3.7v0.4l-0.2,0c-0.6,0-0.9,0.4-1.5,1.5l-2.7,4.8v5.9
				c0,0.3,0.2,0.4,0.5,0.4l1.4,0.1v0.4H203v-0.4l1.4-0.1c0.3,0,0.5-0.1,0.5-0.4v-5.2l-2.9-6c-0.2-0.5-0.5-1-1.2-1.1l-0.5,0v-0.4
				H205.4z"/>
		</g>
	</g>
	<g>
		<path class="st1" d="M112.4,75.9c-0.2,0.2-0.3,0.4-0.3,0.7h2V77h-2.5c0-0.3,0-0.7,0.2-1c0.1-0.2,0.2-0.3,0.4-0.5l0.9-0.9
			c0.4-0.3,0.5-0.5,0.5-1c0-0.5-0.2-0.8-0.7-0.8c-0.6,0-0.7,0.6-0.7,1.1h-0.5v-0.3c0-0.3,0.1-0.7,0.3-0.9c0.1-0.1,0.4-0.4,0.9-0.4
			c0.8,0,1.2,0.5,1.2,1.3c0,0.7-0.3,1-0.8,1.4L112.4,75.9z"/>
		<path class="st1" d="M115.1,74.8c0-0.9,0.1-2.4,1.3-2.4c1.3,0,1.3,1.5,1.3,2.4c0,1-0.1,2.4-1.3,2.4
			C115.1,77.1,115.1,75.6,115.1,74.8z M116.4,76.7c0.8,0,0.7-1.1,0.7-2c0-0.7,0.1-1.8-0.7-1.8c-0.8,0-0.7,1.4-0.7,1.8
			C115.6,75.6,115.5,76.7,116.4,76.7z"/>
	</g>
	<g>
		<path class="st1" d="M146.2,75.9c-0.2,0.2-0.3,0.4-0.3,0.7h2V77h-2.5c0-0.3,0.1-0.7,0.2-1c0.1-0.2,0.2-0.3,0.4-0.5l0.9-0.9
			c0.4-0.3,0.5-0.5,0.5-1c0-0.5-0.2-0.8-0.7-0.8c-0.6,0-0.7,0.6-0.7,1.1h-0.5v-0.3c0-0.3,0.1-0.7,0.3-0.9c0.1-0.1,0.4-0.4,0.9-0.4
			c0.8,0,1.2,0.5,1.2,1.3c0,0.7-0.3,1-0.8,1.4L146.2,75.9z"/>
		<path class="st1" d="M148.9,74.8c0-0.9,0.1-2.4,1.3-2.4c1.3,0,1.3,1.5,1.3,2.4c0,1-0.1,2.4-1.3,2.4
			C149,77.1,148.9,75.6,148.9,74.8z M150.2,76.7c0.8,0,0.7-1.1,0.7-2c0-0.7,0.1-1.8-0.7-1.8c-0.8,0-0.7,1.4-0.7,1.8
			C149.5,75.6,149.3,76.7,150.2,76.7z"/>
	</g>
	<path class="st1" d="M137.4,58.2c0.3,0.9,0.4,2.2,0.4,3.1c0,0.4,0,5.5,0,5.5h2c0,0,0-6,0-6.5c-0.1-1.3-0.3-2.4-1-3.5
		c-1.2-1.9-3.3-2.3-5.4-2c-0.2,0-0.4,0.1,0,0.2C134.4,55.3,136.5,55.7,137.4,58.2z"/>
	<path class="st1" d="M125.6,58.2c-0.3,0.9-0.4,2.2-0.4,3.1c0,0.4,0,5.5,0,5.5h-2c0,0,0-6,0-6.5c0.1-1.3,0.3-2.4,1-3.5
		c1.2-1.9,3.3-2.3,5.4-2c0.2,0,0.4,0.1,0,0.2C128.6,55.3,126.5,55.7,125.6,58.2z"/>
	<path class="st1" d="M137.4,91.6c0.3-0.9,0.4-2.2,0.4-3.1c0-0.4,0-5.5,0-5.5h2c0,0,0,6,0,6.5c-0.1,1.3-0.3,2.4-1,3.5
		c-1.2,1.9-3.3,2.3-5.4,2c-0.2,0-0.4-0.1,0-0.2C134.5,94.5,136.5,94,137.4,91.6z"/>
	<path class="st1" d="M125.7,91.6c-0.3-0.9-0.4-2.2-0.4-3.1c0-0.4,0-5.5,0-5.5h-2c0,0,0,6,0,6.5c0.1,1.3,0.3,2.4,1,3.5
		c1.2,1.9,3.3,2.3,5.4,2c0.2,0,0.4-0.1,0-0.2C128.6,94.5,126.6,94,125.7,91.6z"/>
	<g>
		<g>
			<path class="st1" d="M76,154.3V149h0.6v2.2h2.1V149h0.6v5.3h-0.6v-2.6h-2.1v2.6H76z"/>
			<path class="st1" d="M84.4,148.9c1.6,0,1.8,1.4,1.8,2.7c0,1.5-0.2,2.9-1.8,2.9s-1.8-1.4-1.8-2.9
				C82.6,150.3,82.8,148.9,84.4,148.9z M84.3,149.4c-0.9,0-1.2,1-1.1,2.1c0,1.5,0.2,2.4,1.2,2.4c1,0,1.2-0.8,1.2-2.4
				C85.5,150.4,85.3,149.4,84.3,149.4z"/>
			<path class="st1" d="M92.9,149H94v5.3h-0.6v-4.4c0-0.2,0-0.4,0-0.7h0c-0.1,0.3-0.1,0.5-0.2,0.7l-1.1,4.4h-0.7l-1.1-4.4
				c-0.1-0.2-0.1-0.4-0.2-0.7h0c0,0.2,0,0.5,0,0.7v4.4h-0.6V149h1.1l1.1,4.2c0.1,0.2,0.1,0.4,0.1,0.8h0c0-0.3,0.1-0.5,0.1-0.8
				L92.9,149z"/>
			<path class="st1" d="M97.4,154.3V149h2.7v0.5H98v1.8h2v0.5h-2v2h2.1v0.5H97.4z"/>
			<path class="st1" d="M101,154.3v-0.7h0.7c0,0.1,0,0.6,0,0.8c0,0.3-0.1,0.6-0.4,0.8c-0.1,0.1-0.2,0.1-0.3,0.1V155
				c0.1,0,0.1,0,0.2-0.1c0.2-0.2,0.2-0.4,0.2-0.6H101z"/>
			<path class="st1" d="M109.3,154.3V149h2.5v0.5h-1.9v1.8h1.8v0.5h-1.8v2.5H109.3z"/>
			<path class="st1" d="M114.9,154.3V149h2.7v0.5h-2.1v1.8h2v0.5h-2v2h2.1v0.5H114.9z"/>
			<path class="st1" d="M120.8,154.3V149h2.7v0.5h-2.1v1.8h2v0.5h-2v2h2.1v0.5H120.8z"/>
			<path class="st1" d="M126.9,154.3V149h0.6v4.8h2.2v0.5H126.9z"/>
			<path class="st1" d="M132.1,154.3V149h0.6v5.3H132.1z"/>
			<path class="st1" d="M138.6,149h0.6v5.3h-1l-1.5-4.3c-0.1-0.2-0.2-0.5-0.2-0.8h0c0,0.3,0,0.5,0,0.8v4.3h-0.6V149h1l1.5,4.4
				c0.1,0.2,0.1,0.3,0.2,0.6h0c0-0.2,0-0.4,0-0.6V149z"/>
			<path class="st1" d="M145.9,154.4h-0.5v-0.8h0c-0.2,0.6-0.6,0.9-1.2,0.9c-1.6,0-1.7-1.6-1.7-2.8c0-1.2,0.2-2.7,1.8-2.7
				c1,0,1.6,0.7,1.6,1.7h-0.6c0-0.7-0.3-1.1-1-1.1c-1.2,0-1.2,1.3-1.2,2.2c0,0.8,0,2.2,1,2.3c1.1,0,1.2-1,1.2-1.8h-1.2v-0.5h1.8
				V154.4z"/>
			<path class="st1" d="M151.7,150.4c0-0.6-0.3-1-0.9-1c-0.9,0-1,0.5-1,1c0,0.4,0.2,0.6,0.5,0.7c0.3,0.1,0.6,0.2,0.9,0.3
				c1,0.4,1.2,0.7,1.2,1.4c0,1-0.6,1.6-1.7,1.6c-0.5,0-1.2-0.1-1.5-0.8c-0.1-0.3-0.1-0.7-0.1-1h0.6c0,0.8,0.1,1.3,1,1.3
				c0.6,0,1-0.3,1-0.9c0-0.8-0.3-0.8-0.9-1c-0.3-0.1-0.8-0.3-1.1-0.4c-0.5-0.3-0.6-0.7-0.6-1.2c0-0.9,0.6-1.5,1.5-1.5
				c1,0,1.6,0.5,1.5,1.5H151.7z"/>
			<path class="st1" d="M162.8,152.9c0.1-0.3,0.2-0.7,0.2-1h0.5c0,0.5-0.1,1-0.4,1.5l0.7,1h-0.7l-0.3-0.5c-0.3,0.4-0.7,0.6-1.3,0.6
				c-1,0-1.6-0.6-1.6-1.6c0-0.8,0.5-1.2,1.1-1.6c-0.3-0.4-0.5-0.7-0.5-1.2c0-0.6,0.4-1.1,1-1.1c0.6,0,1.1,0.4,1.1,1.1
				c0,0.6-0.5,1-0.9,1.3L162.8,152.9z M161.3,151.7c-0.5,0.3-0.7,0.6-0.7,1.2c0,0.6,0.4,1,1,1c0.4,0,0.7-0.2,0.9-0.5L161.3,151.7z
				 M162.1,150c0-0.3-0.2-0.6-0.5-0.6c-0.3,0-0.5,0.3-0.5,0.6c0,0.3,0.2,0.7,0.4,1C161.8,150.7,162.1,150.5,162.1,150z"/>
			<path class="st1" d="M172.7,151.7l1.3-2.7h0.7l-1.6,3.3v2.1h-0.6v-2.1l-1.6-3.3h0.7L172.7,151.7z"/>
			<path class="st1" d="M179.3,148.9c1.6,0,1.8,1.4,1.8,2.7c0,1.5-0.2,2.9-1.8,2.9c-1.6,0-1.8-1.4-1.8-2.9
				C177.5,150.3,177.7,148.9,179.3,148.9z M179.3,149.4c-0.9,0-1.2,1-1.1,2.1c0,1.5,0.2,2.4,1.2,2.4c1,0,1.2-0.8,1.2-2.4
				C180.5,150.4,180.2,149.4,179.3,149.4z"/>
			<path class="st1" d="M184.5,149h0.6v3.8c0,0.4,0.1,1.1,1,1.1c1,0,1-0.7,1-1.1V149h0.6v4.1c0,1-0.6,1.4-1.6,1.4
				c-1,0-1.6-0.5-1.6-1.4V149z"/>
		</g>
	</g>
</g>
</svg>
