<?xml version="1.0" encoding="utf-8"?>
<svg version="1.1" id="Слой_1" xmlns="http://www.w3.org/2000/svg" xmlns:xlink="http://www.w3.org/1999/xlink" x="0px" y="0px"
	 viewBox="107 50 50 50" style="enable-background:new 0 0 264 216;" xml:space="preserve">
<style type="text/css">
	.st0{fill:none;}
	.st1{fill:#E4D5D3;}
</style>
<rect x="0.1" class="st0" width="263.9" height="216"/>
<g>
	<g>
		<g>
			<path class="st1" d="M132.8,62c-0.3,0-0.3,0.1-0.3,0.4v24.8c0,0.3,0,0.5,0.4,0.5l1.4,0.1v0.4h-5.7v-0.4l1.4-0.1
				c0.4,0,0.4-0.3,0.4-0.6V62.4c0-0.3-0.1-0.3-0.5-0.4l-1.2-0.1v-0.4h5.6v0.4L132.8,62z"/>
		</g>
	</g>
	<path class="st1" d="M125.6,68.7c-0.3,0-0.3,0.1-0.3,0.4v11.5c0,0.3,0,0.5,0.4,0.5l1.4,0.1v0.4h-5.7v-0.4l1.4-0.1
		c0.4,0,0.4-0.3,0.4-0.6V69c0-0.3-0.1-0.3-0.5-0.4l-1.2-0.1v-0.4h5.6v0.4L125.6,68.7z"/>
	<path class="st1" d="M140.2,68.7c-0.3,0-0.3,0.1-0.3,0.4v11.5c0,0.3,0,0.5,0.4,0.5l1.4,0.1v0.4H136v-0.4l1.4-0.1
		c0.4,0,0.4-0.3,0.4-0.6V69c0-0.3-0.1-0.3-0.5-0.4l-1.2-0.1v-0.4h5.6v0.4L140.2,68.7z"/>
	<g>
		<path class="st1" d="M112.4,75.9c-0.2,0.2-0.3,0.4-0.3,0.7h2V77h-2.5c0-0.3,0-0.7,0.2-1c0.1-0.2,0.2-0.3,0.4-0.5l0.9-0.9
			c0.4-0.3,0.5-0.5,0.5-1c0-0.5-0.2-0.8-0.7-0.8c-0.6,0-0.7,0.6-0.7,1.1h-0.5v-0.3c0-0.3,0.1-0.7,0.3-0.9c0.1-0.1,0.4-0.4,0.9-0.4
			c0.8,0,1.2,0.5,1.2,1.3c0,0.7-0.3,1-0.8,1.4L112.4,75.9z"/>
		<path class="st1" d="M115.1,74.8c0-0.9,0.1-2.4,1.3-2.4c1.3,0,1.3,1.5,1.3,2.4c0,1-0.1,2.4-1.3,2.4
			C115.1,77.1,115.1,75.6,115.1,74.8z M116.4,76.7c0.8,0,0.7-1.1,0.7-2c0-0.7,0.1-1.8-0.7-1.8c-0.8,0-0.7,1.4-0.7,1.8
			C115.6,75.6,115.5,76.7,116.4,76.7z"/>
	</g>
	<g>
		<path class="st1" d="M146.2,75.9c-0.2,0.2-0.3,0.4-0.3,0.7h2V77h-2.5c0-0.3,0.1-0.7,0.2-1c0.1-0.2,0.2-0.3,0.4-0.5l0.9-0.9
			c0.4-0.3,0.5-0.5,0.5-1c0-0.5-0.2-0.8-0.7-0.8c-0.6,0-0.7,0.6-0.7,1.1h-0.5v-0.3c0-0.3,0.1-0.7,0.3-0.9c0.1-0.1,0.4-0.4,0.9-0.4
			c0.8,0,1.2,0.5,1.2,1.3c0,0.7-0.3,1-0.8,1.4L146.2,75.9z"/>
		<path class="st1" d="M148.9,74.8c0-0.9,0.1-2.4,1.3-2.4c1.3,0,1.3,1.5,1.3,2.4c0,1-0.1,2.4-1.3,2.4
			C149,77.1,148.9,75.6,148.9,74.8z M150.2,76.7c0.8,0,0.7-1.1,0.7-2c0-0.7,0.1-1.8-0.7-1.8c-0.8,0-0.7,1.4-0.7,1.8
			C149.5,75.6,149.3,76.7,150.2,76.7z"/>
	</g>
	<path class="st1" d="M137.4,58.2c0.3,0.9,0.4,2.2,0.4,3.1c0,0.4,0,5.5,0,5.5h2c0,0,0-6,0-6.5c-0.1-1.3-0.3-2.4-1-3.5
		c-1.2-1.9-3.3-2.3-5.4-2c-0.2,0-0.4,0.1,0,0.2C134.4,55.3,136.5,55.7,137.4,58.2z"/>
	<path class="st1" d="M125.6,58.2c-0.3,0.9-0.4,2.2-0.4,3.1c0,0.4,0,5.5,0,5.5h-2c0,0,0-6,0-6.5c0.1-1.3,0.3-2.4,1-3.5
		c1.2-1.9,3.3-2.3,5.4-2c0.2,0,0.4,0.1,0,0.2C128.6,55.3,126.5,55.7,125.6,58.2z"/>
	<path class="st1" d="M137.4,91.6c0.3-0.9,0.4-2.2,0.4-3.1c0-0.4,0-5.5,0-5.5h2c0,0,0,6,0,6.5c-0.1,1.3-0.3,2.4-1,3.5
		c-1.2,1.9-3.3,2.3-5.4,2c-0.2,0-0.4-0.1,0-0.2C134.5,94.5,136.5,94,137.4,91.6z"/>
	<path class="st1" d="M125.7,91.6c-0.3-0.9-0.4-2.2-0.4-3.1c0-0.4,0-5.5,0-5.5h-2c0,0,0,6,0,6.5c0.1,1.3,0.3,2.4,1,3.5
		c1.2,1.9,3.3,2.3,5.4,2c0.2,0,0.4-0.1,0-0.2C128.6,94.5,126.6,94,125.7,91.6z"/>
</g>
</svg>
